<?xml version="1.0" encoding="utf-8"?>
<!-- Generator: Adobe Illustrator 21.0.0, SVG Export Plug-In . SVG Version: 6.00 Build 0)  -->
<svg version="1.1" id="图层_1" xmlns="http://www.w3.org/2000/svg" xmlns:xlink="http://www.w3.org/1999/xlink" x="0px" y="0px"
	 viewBox="0 0 43.2 43.2" style="enable-background:new 0 0 43.2 43.2;" xml:space="preserve">
<style type="text/css">
	.st0{enable-background:new    ;}
	.st1{fill:#0392E2;}
	.st2{fill:#FFFFFF;}
</style>
<g id="背景_xA0_图像_1_">
</g>
<g id="矩形_1_拷贝_1_" class="st0">
	
		<image style="overflow:visible;opacity:0.35;" width="39" height="39" xlink:href="3034D8E4.png"  transform="matrix(1 0 0 1 2 2.2)">
	</image>
	<g>
		<g>
			<g id="矩形_1_拷贝_11_">
				<g>
					<path class="st1" d="M33.5,3.2H9.7c-2.5,0-4.5,2-4.5,4.5v23.8c0,2.5,2,4.5,4.5,4.5c0,0,8.3,0,15,0c4.8,0,8.8,0,8.8,0
						c2.5,0,4.5-2,4.5-4.5V7.7C38,5.2,36,3.2,33.5,3.2z"/>
				</g>
			</g>
		</g>
	</g>
</g>
<g id="椭圆_1_xA0_图像_1_">
</g>
<g id="椭圆_1_拷贝_xA0_图像_1_">
</g>
<g id="形状_3_1_" class="st0">
	<g id="形状_3">
		<g>
			<path class="st2" d="M9.3,36.1h24.8c2.4,0,3.8-1.5,3.9-3.8v-2.3H27c-2.6,0-4.8,1.8-5.3,4.3c-0.5-2.4-2.7-4.3-5.3-4.3H5.2V30
				c0,0.5,0,2.1,0,2.1C5.3,34.5,6.9,36.1,9.3,36.1z"/>
		</g>
	</g>
</g>
<g id="形状_2_1_" class="st0">
	<g id="形状_2">
		<g>
			<path class="st2" d="M11.3,22.2l1.1-9.4h0.8l0.1-0.4h-0.8l0.2-1.4l0.2-1.3h-2l-0.3,2.7H9.7l-0.1,0.4h0.8l-1.1,9.5H11.3z
				 M21.1,21.3c-0.2,0.3-0.3,0.6-0.5,0.8c0.2,0,0.3,0,0.5,0c1.6,0,2.4-0.9,2.5-2.7l0.8-7c0.4-0.7,1.1-1.1,2.3-1h7l0.1-0.6H30
				l0.2-1.4h-2.3l-0.2,1.4h-0.9c-1.2-0.1-2,0.4-2.2,1.4l0.2-1.7h-2.1l-1,8.8C21.6,20.1,21.4,20.7,21.1,21.3z M15.8,20.7h1.1
				c-0.5-0.2-0.8-0.5-1.1-0.9c-0.1-0.2-0.2-0.4-0.3-0.5h-2.3c0.1,0.2,0.2,0.3,0.2,0.5c0.1,0.2,0.2,0.3,0.2,0.4
				c0.2,0.3,0.4,0.5,0.8,0.5c0.2,0.1,0.3,0.1,0.5,0.1C15.2,20.7,15.4,20.7,15.8,20.7z M27.3,22.2h2.2l0.2-2.2h3.2l0.1-0.5h-3.3
				l0.2-1.8h2.4l0.1-0.6H30l0.2-2.2H28L27.7,17h-0.5c-0.5,0.1-0.8-0.1-0.7-0.4c0.1-0.3,0.6-1.2,1.6-2.7h4.6l0.1-0.6h-4.2
				c0.2-0.3,0.3-0.6,0.5-0.9c0.2-0.2,0.3-0.5,0.4-0.6h-2.4c-0.3,0.5-0.7,1-1,1.5h-1.5l-0.1,0.6H26c-0.2,0.3-0.5,0.6-0.7,0.9
				c-0.2,0.3-0.3,0.5-0.5,0.7c-0.2,0.3-0.4,0.7-0.4,0.9c-0.1,0.8,0.3,1.1,1.3,1.1h2.1l-0.2,1.8H24l-0.1,0.5h3.6L27.3,22.2z
				 M17.7,20.1c-0.1,0.8-0.4,1.1-1,1.1c-0.4,0-0.7,0-1,0c-0.2,0-0.5,0-0.8-0.1c-0.1,0-0.2,0-0.2,0c-0.2-0.2-0.3-0.2-0.4-0.1
				c0,0,0.1,0.2,0.2,0.2c0.2,0.1,0.2,0.2,0.3,0.2c0.2,0.2,0.5,0.3,0.8,0.4c0.6,0.2,1.3,0.4,2.1,0.4c0.3,0,0.6,0,0.8-0.2
				c0.6-0.2,1-0.8,1.1-1.5l0.2-1.6h0.9l0.1-0.5h-0.9l0.1-0.5h0.5l0.5-4.5c0.2-0.9-0.3-1.4-1.4-1.4h-1.2l0.1-0.8h3.3l0.1-0.5h-0.7
				c-0.2-0.2-0.4-0.5-0.5-1.1h-1.5c0,0.7,0.2,1,0.6,1.1h-1.1l0.2-1.4h-1.9l-0.2,1.4h-3.2l-0.1,0.5h3.2l-0.1,0.8
				c-0.2,0-0.5,0.1-0.6,0.2c-0.2,0.1-0.3,0.2-0.4,0.5l0.1-0.6h-1.9L12.8,18h1.9l0.2-1.5h1l-0.2,1.1l-0.1,0.5h1.9l0.2-1.5h0.9
				l-0.2,1.2h-0.7l-0.1,0.8H12v0.3h5.8L17.7,20.1z M15.9,16H15v-0.4l0.2-1h0.9L15.9,16z M16.1,14.1h-0.9l0.2-1.1
				c0.2-0.2,0.2-0.3,0.4-0.3c0.1-0.1,0.2-0.1,0.3-0.1h0.2L16.1,14.1z M18.3,12.6h0.2c0.1,0,0.1,0,0.2,0c0.5,0,0.6,0.3,0.5,0.8
				l-0.1,0.8h-0.9L18.3,12.6z M17.9,16l0.2-1.4h0.9L18.8,16H17.9z M29.4,25.4c-0.5-0.1-1,0.3-1.2,0.8c-0.2,0.5,0.1,1.1,0.5,1.2
				c0.5,0.1,1-0.3,1.2-0.8C30.2,26,30,25.4,29.4,25.4z M29.7,26.4c-0.1,0.3-0.3,0.5-0.5,0.7c-0.1,0.1-0.2,0.1-0.3,0.1
				c-0.3-0.1-0.5-0.5-0.3-0.9c0.1-0.3,0.3-0.5,0.5-0.7c0.1-0.1,0.2-0.1,0.3-0.1c0.2,0,0.3,0.2,0.3,0.3C29.7,26,29.7,26.2,29.7,26.4z
				 M33.4,25.4c-0.3,0-0.5,0.2-0.8,0.5c-0.1-0.3-0.2-0.5-0.5-0.5c-0.2,0-0.5,0.2-0.7,0.4l0.1-0.3h-0.3l-0.3,1.9h0.3
				c0,0,0.2-0.8,0.2-1.1c0.1-0.3,0.5-0.6,0.7-0.6c0.3,0,0.4,0.2,0.4,0.5l-0.2,1.2h0.3c0,0,0.2-0.8,0.2-1.1s0.4-0.6,0.6-0.6
				c0.2,0,0.4,0.2,0.3,0.5l-0.2,1.2h0.3l0.2-1.2C34,25.6,33.7,25.4,33.4,25.4z M10.8,25.4c-0.4-0.2-0.8,0-1.1,0.4l0,0l0.2-1.3H9.8
				l-0.5,2.8h0.2l0.2-0.2l0.1-0.2c0.1,0.2,0.2,0.4,0.4,0.5c0.5,0.2,1-0.2,1.2-0.7C11.4,26.1,11.3,25.6,10.8,25.4z M10.9,26.6
				c-0.2,0.2-0.3,0.5-0.5,0.5c-0.1,0-0.2,0-0.2,0C9.8,27,9.8,26.6,10,26.2c0.2-0.2,0.3-0.5,0.5-0.5c0.1,0,0.2,0,0.2,0
				c0.2,0.1,0.2,0.2,0.2,0.3C11,26.2,11,26.4,10.9,26.6z M21,26.5c-0.1,0.4-0.3,0.5-0.7,0.6c-0.3,0-0.5-0.2-0.4-0.5l0.2-1.2h-0.3
				l-0.2,1.2c-0.1,0.5,0.1,0.8,0.5,0.8c0.3,0,0.6-0.2,0.8-0.4l-0.1,0.3h0.3l0.3-2h-0.3L21,26.5z M18.7,25.4
				c-0.4,0.3-0.7,0.5-0.9,0.7c-0.1,0-0.2,0-0.2,0l0.2-1.5h-0.3L17,27.3h0.3l0.2-1c0.1,0,0.2,0,0.2,0l0.7,1.1h0.5L18,26.3
				c0.3-0.2,0.6-0.5,1-0.8L18.7,25.4L18.7,25.4z M23.4,26.5c-0.1,0.4-0.3,0.5-0.7,0.6c-0.3,0-0.5-0.2-0.4-0.5l0.2-1.2h-0.3L22,26.7
				c-0.1,0.5,0.1,0.8,0.5,0.8c0.3,0,0.6-0.2,0.8-0.4l-0.1,0.3h0.3l0.3-2h-0.3L23.4,26.5z M15.6,25.4c-0.5-0.1-1,0.3-1.2,0.8
				c-0.2,0.5,0.1,1.1,0.5,1.2c0.5,0.1,1-0.3,1.2-0.8C16.4,26,16.1,25.4,15.6,25.4z M15.8,26.4c-0.1,0.3-0.3,0.5-0.5,0.7
				c-0.1,0.1-0.2,0.1-0.3,0.1c-0.3-0.1-0.5-0.5-0.3-0.9c0.1-0.3,0.3-0.5,0.5-0.7c0.1-0.1,0.2-0.1,0.3-0.1c0.2,0,0.3,0.2,0.3,0.3
				C15.9,26,15.9,26.2,15.8,26.4z M24.9,26.8c-0.2,0-0.2,0.2-0.3,0.3c0,0.2,0.1,0.2,0.2,0.2c0.2,0,0.2-0.1,0.3-0.3
				C25.1,26.9,25,26.8,24.9,26.8z M27.1,25.4c-0.8-0.1-1.2,0.6-1.2,1.2c0,0.5,0.3,0.8,0.8,0.8c0.2,0,0.5-0.1,0.6-0.2
				c0.1-0.1,0.1-0.2,0.1-0.3c-0.2,0.2-0.4,0.3-0.6,0.3c-0.3,0-0.6-0.2-0.6-0.6s0.3-0.9,0.8-0.9c0.2,0,0.4,0.1,0.5,0.3
				c0,0,0.1-0.2,0-0.2C27.4,25.4,27.3,25.4,27.1,25.4z M13.2,25.4c-0.5-0.2-1,0.2-1.1,0.8c-0.2,0.5,0.1,1.1,0.5,1.2
				c0.5,0.1,1-0.3,1.2-0.8C14,26,13.7,25.4,13.2,25.4z M13.5,26.4c-0.1,0.3-0.3,0.5-0.5,0.7c-0.1,0.1-0.2,0.1-0.3,0.1
				c-0.3-0.1-0.5-0.5-0.3-0.9c0.1-0.3,0.3-0.5,0.5-0.7c0.1-0.1,0.2-0.1,0.3-0.1c0.2,0,0.3,0.2,0.3,0.3C13.6,26,13.6,26.2,13.5,26.4z
				"/>
		</g>
	</g>
</g>
</svg>
